<?xml version="1.0" encoding="UTF-8"?>
<!DOCTYPE svg PUBLIC "-//W3C//DTD SVG 1.1//EN" "http://www.w3.org/Graphics/SVG/1.1/DTD/svg11.dtd">
<!-- Creator: CorelDRAW 2021 (64-Bit Оценочная версия) -->
<svg xmlns="http://www.w3.org/2000/svg" xml:space="preserve" width="210mm" height="297mm" version="1.1" style="shape-rendering:geometricPrecision; text-rendering:geometricPrecision; image-rendering:optimizeQuality; fill-rule:evenodd; clip-rule:evenodd"
viewBox="0 0 21000 29700"
 xmlns:xlink="http://www.w3.org/1999/xlink"
 xmlns:xodm="http://www.corel.com/coreldraw/odm/2003">
 <defs>
  <style type="text/css">
   <![CDATA[
    .str0 {stroke:#2B2A29;stroke-width:20;stroke-miterlimit:22.9256}
    .str1 {stroke: black; stroke-width:100}
    .str2 {stroke: red; stroke-width:100}
    .fil0 {fill:none}
    .fil1 {fill:red} 
   ]]>
  </style>
 </defs>
 <g id="Слой_x0020_1">
  <metadata id="CorelCorpID_0Corel-Layer"/>
  <g id="_2109354748400">
   <polygon class="fil1 str1" points="10120.36,5898.82 11106.21,6685.09 12092.06,7471.36 11715.5,8743.57 11338.94,10015.78 10120.36,10015.78 8901.78,10015.78 8525.22,8743.57 8148.66,7471.36 9134.51,6685.09 "/>
   <polygon class="fil1 str1" points="10110.9,16537.03 9122.28,15754.25 8133.66,14971.46 8505.72,13697.93 8877.78,12424.4 10096.36,12420.09 11314.93,12415.79 11695.98,13686.66 12077.03,14957.53 11093.97,15747.28 "/>
   <rect class="fil0 str1" x="8892.5" y="10037.96" width="2441.27" height="2381.18"/>
   <polygon class="fil1 str1" points="4782.21,11241.32 5560.26,10271.51 6338.31,9301.7 7613.61,9659.36 8888.9,10017.02 8899.03,11207.89 8909.15,12398.75 7640.12,12777.07 6371.08,13155.4 5576.65,12198.36 "/>
   <g id="_2526355979616">
    <line class="fil0 str0" x1="8867.17" y1="12388.93" x2="7981.33" y2= "15410.23" />
    <line class="fil0 str0" x1="8885.23" y1="12396.35" x2="5873.31" y2= "13313.59" />
    <line class="fil0 str2" x1="7981.33" y1="15410.23" x2="6005.32" y2= "15483.9" />
    <line class="fil0 str2" x1="5873.3" y1="13313.59" x2="6005.32" y2= "15483.9" />
    <line class="fil0 str1" x1="8867.17" y1="12388.93" x2="7981.33" y2= "15410.23" />
    <line class="fil0 str1" x1="8885.23" y1="12396.35" x2="5873.31" y2= "13313.59" />
    <line class="fil0 str0" x1="7981.33" y1="15410.23" x2="6005.32" y2= "15483.9" />
    <line class="fil0 str0" x1="5873.3" y1="13313.59" x2="6005.32" y2= "15483.9" />
   </g>
   <g id="_2526355981968">
    <line class="fil0 str0" x1="11303.68" y1="12372.65" x2="14316.38" y2= "13287.32" />
    <line class="fil0 str0" x1="11311.27" y1="12354.66" x2="12199.68" y2= "15375.21" />
    <line class="fil0 str2" x1="14316.38" y1="13287.32" x2="14371.16" y2= "15263.94" />
    <line class="fil0 str2" x1="12199.69" y1="15375.22" x2="14371.16" y2= "15263.94" />
    <line class="fil0 str1" x1="11303.68" y1="12372.65" x2="14316.38" y2= "13287.32" />
    <line class="fil0 str1" x1="11311.27" y1="12354.66" x2="12199.68" y2= "15375.21" />
    <line class="fil0 str0" x1="14316.38" y1="13287.32" x2="14371.16" y2= "15263.94" />
    <line class="fil0 str0" x1="12199.69" y1="15375.22" x2="14371.16" y2= "15263.94" />
   </g>
   <polygon class="fil1 str1" points="15446.86,11213.63 14660.5,12176.71 13874.14,13139.8 12601.97,12771.19 11329.79,12402.58 11329.9,11211.67 11330.01,10020.77 12602.26,9653.36 13874.5,9285.96 14660.68,10249.79 "/>
   <g id="_2526355977744">
    <line class="fil0 str0" x1="8935.03" y1="10015.58" x2="5902.91" y2= "9167.49" />
    <line class="fil0 str0" x1="8927.83" y1="10033.74" x2="7973.11" y2= "7033.49" />
    <line class="fil0 str2" x1="5902.92" y1="9167.49" x2="5804.61" y2= "7192.55" />
    <line class="fil0 str2" x1="7973.11" y1="7033.48" x2="5804.61" y2= "7192.55" />
    <line class="fil0 str1" x1="8935.03" y1="10015.58" x2="5902.91" y2= "9167.49" />
    <line class="fil0 str1" x1="8927.83" y1="10033.74" x2="7973.11" y2= "7033.49" />
    <line class="fil0 str0" x1="5902.92" y1="9167.49" x2="5804.61" y2= "7192.55" />
    <line class="fil0 str0" x1="7973.11" y1="7033.48" x2="5804.61" y2= "7192.55" />
   </g>
   <g id="_2526355979232">
    <line class="fil0 str0" x1="11334.67" y1="10049.27" x2="12232.84" y2= "7031.61" />
    <line class="fil0 str0" x1="11316.64" y1="10041.78" x2="14332.28" y2= "9136.86" />
    <line class="fil0 str2" x1="12232.85" y1="7031.62" x2="14209.14" y2= "6966.02" />
    <line class="fil0 str2" x1="14332.29" y1="9136.85" x2="14209.14" y2= "6966.02" />
    <line class="fil0 str1" x1="11334.67" y1="10049.27" x2="12232.84" y2= "7031.61" />
    <line class="fil0 str1" x1="11316.64" y1="10041.78" x2="14332.28" y2= "9136.86" />
    <line class="fil0 str0" x1="12232.85" y1="7031.62" x2="14209.14" y2= "6966.02" />
    <line class="fil0 str0" x1="14332.29" y1="9136.85" x2="14209.14" y2= "6966.02" />
   </g>
  </g>
 </g>
</svg>
